<?xml version="1.0" encoding="utf-8"?>
<svg width="404" height="404" viewBox="0 0 404 404" fill="none" xmlns="http://www.w3.org/2000/svg">
  <defs>
    <clipPath id="clip_path_1">
      <rect width="404" height="404" />
    </clipPath>
  </defs>
  <g clip-path="url(#clip_path_1)">
    <g transform="matrix(0.707 0.707 -0.707 0.707 181.908 -13)">
      <g transform="translate(0 66.18)">
        <path d="M0.170002 29.8802L56.86 29.8502L56.7201 169.671L90.91 203.58L193.23 203.54L227.09 169.631L226.94 29.8701L283.66 29.81L283.82 0.100096L245.042 0C245.042 0 238.484 17.7927 226.941 30.6531C215.398 43.5139 198.87 51.4424 198.87 51.4424L197.82 174.131L85.9801 174.131L86.0086 49.1201C86.0086 49.1201 74.4634 41.2508 63.8309 30.6531C53.1984 20.0558 43.4801 0.040144 43.4801 0.040144L0 0.139914L0.170002 29.8802Z" fill="#0091CF" fill-rule="evenodd" transform="translate(21.09 20)" />
        <path d="M0.00680161 1.39922C0.00680161 1.39922 -0.743198 -1.74902 13.5068 1.39922C27.7568 4.54746 36.1564 19.9279 45.0068 27.3992L57.0068 34.0623L57.0068 152.399L0.00680161 152.399L0.00680161 1.39922Z" fill="#0091CF" fill-rule="evenodd" transform="translate(63.953 46.421)" />
        <path d="M0 33.0566C0 33.0566 22.657 19.9168 36.907 11.6527C51.157 3.38855 57 0 57 0L57 151L0 151L0 33.0566Z" fill="#0091CF" fill-rule="evenodd" transform="translate(205 48)" />
        <rect width="116" height="58" fill="#0091CF" fill-rule="evenodd" transform="translate(103.96 178.82)" />
        <path d="M0 0L59 -1.52588e-05L59 58L3.05176e-05 58L0 0Z" fill="#0091CF" fill-rule="evenodd" transform="matrix(0.669 0.743 -0.743 0.669 111.272 158)" />
        <path d="M0 0L59 0L59 58L0 58L0 0Z" fill="#0091CF" fill-rule="evenodd" transform="matrix(0.669 0.743 -0.743 0.669 222 150)" />
        <path d="M13.0415 20.7276L0 49.8536L67.7137 49.7865L68 7.62939e-06L24.403 0L13.0415 20.7276Z" fill="#0091CF" fill-rule="evenodd" transform="translate(246.96 9.966)" />
        <path d="M0.253551 49.845L60 49.845L48.1911 0L0 0L0.253551 49.845L0.253551 49.845Z" fill="#0091CF" fill-rule="evenodd" transform="translate(10.96 9.975)" />
        <path d="M57.62 69.45L57.52 198.7L102.99 244.32L223 244.28L268.47 198.66L268.37 69.38L325.88 69.38L326.02 0L277.259 0.0700073C277.259 0.0700073 265.686 34.7164 245.804 54.91C225.922 75.1036 197.73 80.8445 197.73 80.8445L197.73 173.81L128.27 173.85L128.2 81.6698C128.2 81.6698 103.431 75.3099 83.96 54.91C64.489 34.5101 50.3162 0.0700073 50.3162 0.0700073L0 0.0400086L0.130005 69.46L57.62 69.45L57.62 69.45ZM59.846 10.272C59.846 10.272 62.5893 30.3748 76.96 46.32C91.3308 62.2652 117.329 74.0528 117.329 74.0528L117.69 184.19L208.3 184.15L208.3 77.5648C208.3 77.5648 235.219 63.0962 250.96 46.32C266.701 29.5438 271.263 10.46 271.263 10.46L314.9 10.42L314.93 59.51L257.74 59.5201L257.74 194.43L218.23 233.8L107.76 233.84L68.25 194.47L68.26 59.5201L11.25 59.51L11.24 10.46L59.4525 10.2735L59.846 10.272Z" fill="#004169" />
        <g transform="translate(49.654 0.338)">
          <path d="M73.2439 73.8383C66.086 70.7852 59.3786 67.0378 53.1218 62.596C50.1324 60.4738 47.2459 58.1931 44.4622 55.7539C42.509 54.0424 40.6065 52.2529 38.7546 50.3854C28.7334 40.2796 20.9752 28.6759 15.4801 15.5744C13.7506 11.4509 12.2839 7.26712 11.0801 3.02321C10.7953 2.01884 10.5251 1.01111 10.2697 0L0 0C0.187988 0.818466 0.384308 1.63371 0.588867 2.44565C1.23181 4.99753 1.95618 7.51665 2.75903 10C3.79654 13.2093 4.96512 16.3588 6.25839 19.4422C12.2288 33.677 20.8565 46.5023 31.5145 57.2858C31.5599 57.3318 31.6064 57.3788 31.6539 57.4267C31.699 57.4722 31.7447 57.5181 31.791 57.5647C44.6115 70.4515 60.3428 80.3953 77.9039 86.306L77.9039 75.7014C76.342 75.1182 74.7886 74.4972 73.2439 73.8383L73.2439 73.8383Z" />
          <path d="M74.4073 85.067C72.6927 84.4287 70.9968 83.7515 69.3205 83.0365C68.8467 82.8344 68.3745 82.6293 67.9039 82.4212C54.3523 76.4289 42.1259 67.953 31.791 57.5647C31.7447 57.5181 31.699 57.4722 31.6539 57.4267C31.6064 57.3788 31.5599 57.3318 31.5145 57.2858C31.4825 57.2535 31.4505 57.2211 31.4185 57.1886C20.8047 46.4253 12.2109 33.6342 6.25839 19.4422C4.96512 16.3588 3.79654 13.2093 2.75903 10C1.95618 7.51665 1.23181 4.99753 0.588867 2.44565C0.384308 1.63371 0.187988 0.818466 0 0L10.2697 0Q10.6528 1.51666 11.0801 3.02321C12.2839 7.26712 13.7506 11.4509 15.4801 15.5744Q16.5059 18.02 17.6369 20.3962Q25.5211 36.9606 38.5188 50.1469Q38.5712 50.2 38.6268 50.2563L38.7546 50.3854L38.7599 50.3907L38.8859 50.5176Q38.9081 50.5398 38.9284 50.5602Q39.1026 50.7352 39.2768 50.9086C40.9637 52.5878 42.6922 54.2029 44.4622 55.7539C47.2459 58.1931 50.1324 60.4738 53.1218 62.596Q62.507 69.2587 73.2439 73.8383C74.7293 74.4719 76.2226 75.0705 77.7239 75.634C77.7839 75.6565 77.8439 75.679 77.9039 75.7014L77.9039 86.306C76.7301 85.9109 75.5645 85.4978 74.4073 85.067Z" fill="#004169" fill-rule="evenodd" />
        </g>
        <g transform="translate(198.013 0.82)">
          <path d="M0 87.8464L0 77.4086C3.23407 76.3774 6.43246 75.1873 9.59515 73.8383C16.752 70.7857 23.4585 67.0389 29.7145 62.5979C32.7058 60.4745 35.5941 58.1924 38.3794 55.7516C40.3317 54.0408 42.2333 52.2521 44.0844 50.3854C54.1057 40.2795 61.8639 28.6759 67.3589 15.5744C69.0887 11.4504 70.5554 7.26622 71.7592 3.02187C72.044 2.01794 72.314 1.01065 72.5694 0L82.8391 0C82.6511 0.818497 82.4547 1.63376 82.2502 2.44571C81.6072 4.99757 80.8828 7.51666 80.08 10C79.0425 13.2093 77.8739 16.3588 76.5806 19.4422C70.5842 33.739 61.9073 46.6141 51.1851 57.4267C37.1519 71.5783 19.6154 82.197 0 87.8464L0 87.8464Z" />
          <path d="M3.03513 86.9275C5.38931 86.1797 7.71179 85.3598 10 84.4703C11.1821 84.0108 12.355 83.5328 13.5185 83.0365C27.5842 77.037 40.2622 68.3767 50.9319 57.6812Q51.0592 57.5536 51.1851 57.4267Q51.3062 57.3046 51.429 57.1801C62.0388 46.4185 70.6298 33.6305 76.5806 19.4422C77.8739 16.3588 79.0425 13.2093 80.08 10C80.8828 7.51666 81.6072 4.99757 82.2502 2.44571C82.4547 1.63376 82.6511 0.818497 82.8391 0L72.5694 0C72.314 1.01065 72.044 2.01794 71.7592 3.02187C70.5554 7.26622 69.0887 11.4504 67.3589 15.5744Q66.844 16.8021 66.3021 18.0134Q58.1768 36.1741 44.0844 50.3854C42.2333 52.2521 40.3317 54.0408 38.3794 55.7516C35.5941 58.1924 32.7058 60.4745 29.7145 62.5979C23.4585 67.0389 16.752 70.7857 9.59515 73.8383C7.12379 74.8924 4.63063 75.8495 2.11569 76.7096C1.41217 76.9502 0.70694 77.1832 0 77.4086L0 87.8464C1.01736 87.5534 2.02914 87.247 3.03513 86.9275Z" fill="#004169" fill-rule="evenodd" />
        </g>
      </g>
      <g transform="translate(122.96 0)">
        <path d="M0 33C0 14.7746 14.7746 0 33 0C51.2254 0 66 14.7746 66 33C66 51.2254 51.2254 66 33 66C14.7746 66 0 51.2254 0 33Z" fill="#0091CF" fill-rule="evenodd" transform="translate(6 7)" />
        <g>
          <path d="M0 40.5C0 18.1325 17.9086 0 40 0C62.0914 0 80 18.1325 80 40.5C80 62.8675 62.0914 81 40 81C17.9086 81 0 62.8675 0 40.5Z" />
          <path d="M40 0C17.9086 0 0 18.1325 0 40.5C0 62.8675 17.9086 81 40 81C62.0914 81 80 62.8675 80 40.5C80 18.1325 62.0914 0 40 0ZM18.8306 62.1108Q10 53.1698 10 40.5Q10 27.8302 18.8306 18.8892Q27.61 10 40 10Q52.39 10 61.1694 18.8892Q70 27.8301 70 40.5Q70 53.1699 61.1694 62.1108Q52.39 71 40 71Q27.61 71 18.8306 62.1108Z" fill="#004169" fill-rule="evenodd" />
        </g>
      </g>
    </g>
    <g transform="matrix(0.707 0.707 -0.707 0.707 269.561 -9)">
      <g>
        <path d="M0 99.5C0 44.5477 44.3238 0 99 0C153.676 0 198 44.5477 198 99.5C198 154.452 153.676 199 99 199C44.3238 199 0 154.452 0 99.5Z" />
        <path d="M99 0C44.3238 0 0 44.5477 0 99.5C0 154.452 44.3238 199 99 199C153.676 199 198 154.452 198 99.5C198 44.5477 153.676 0 99 0ZM16.997 134.351Q10 117.725 10 99.5Q10 81.2752 16.997 64.649Q23.7564 48.5873 36.0853 36.1961Q48.409 23.8102 64.3769 17.0222Q80.8958 10 99 10Q117.104 10 133.623 17.0222Q149.591 23.8101 161.915 36.1961Q174.244 48.5873 181.003 64.649Q188 81.2753 188 99.5Q188 117.725 181.003 134.351Q174.244 150.413 161.915 162.804Q149.591 175.19 133.623 181.978Q117.104 189 99 189Q80.8958 189 64.3769 181.978Q48.4091 175.19 36.0853 162.804Q23.7564 150.413 16.997 134.351Z" fill="#690000" fill-rule="evenodd" />
      </g>
      <g transform="translate(73 187)">
        <rect width="50" height="102" />
        <path d="M50 0L0 0L0 102L50 102L50 0ZM10 92L10 10L40 10L40 92L10 92Z" fill="#690000" fill-rule="evenodd" />
      </g>
      <g transform="translate(83 177)">
        <rect width="30" height="102" />
        <path d="M30 0L0 0L0 102L30 102L30 0ZM10 92L10 10L20 10L20 92L10 92Z" fill="#D6D6D6" fill-rule="evenodd" />
      </g>
      <g transform="translate(9 9)">
        <path d="M0 90.5C0 40.5182 40.0705 0 89.5 0C138.93 0 179 40.5182 179 90.5C179 140.482 138.93 181 89.5 181C40.0705 181 0 140.482 0 90.5Z" />
        <path d="M89.5 0C40.0705 0 0 40.5182 0 90.5C0 140.482 40.0705 181 89.5 181C138.93 181 179 140.482 179 90.5C179 40.5182 138.93 0 89.5 0ZM48.2557 132.695Q31 115.246 31 90.5Q31 65.7535 48.2557 48.305Q65.3695 31 89.5 31Q113.631 31 130.744 48.305Q148 65.7535 148 90.5Q148 115.247 130.744 132.695Q113.631 150 89.5 150Q65.3695 150 48.2557 132.695Z" fill="#CF0000" fill-rule="evenodd" />
      </g>
      <g transform="translate(39 39)">
        <path d="M0 61C0 27.3106 26.6391 0 59.5 0C92.3609 0 119 27.3106 119 61C119 94.6894 92.3609 122 59.5 122C26.6391 122 0 94.6894 0 61Z" />
        <path d="M59.5 0C26.6391 0 0 27.3106 0 61C0 94.6894 26.6391 122 59.5 122C92.3609 122 119 94.6894 119 61C119 27.3106 92.3609 0 59.5 0ZM24.5857 97.151Q10 82.1976 10 61Q10 39.8024 24.5857 24.849Q39.0695 10 59.5 10Q79.9304 10 94.4143 24.849Q109 39.8024 109 61Q109 82.1976 94.4143 97.151Q79.9305 112 59.5 112Q39.0695 112 24.5857 97.151Z" fill="#690000" fill-rule="evenodd" />
      </g>
      <g transform="translate(83 177)">
        <rect width="30" height="102" />
        <path d="M0 0L30 0L30 102L0 102L0 0Z" fill="#CF0000" fill-rule="evenodd" />
      </g>
    </g>
  </g>
</svg>